<?xml version="1.0" encoding="UTF-8"?>
<svg id="_图层_2" data-name="图层 2" xmlns="http://www.w3.org/2000/svg" viewBox="0 0 589.8 594.13">
  <defs>
    <style>
      .cls-1 {
        fill: #44a86c;
      }

      .cls-2 {
        font-family: STYuanti-SC-Bold, 'Yuanti SC';
        font-size: 84.96px;
        font-weight: 700;
        letter-spacing: 0em;
      }

      .cls-2, .cls-3 {
        fill: #0f2f43;
      }

      .cls-4 {
        fill: #e55b41;
      }

      .cls-5 {
        fill: #fe9934;
        stroke: #0f2f43;
        stroke-miterlimit: 10;
        stroke-width: 14px;
      }
    </style>
  </defs>
  <path class="cls-5" d="M582.8,294.9c0,158.99-128.91,287.9-287.9,287.9-117.45,0-218.48-70.34-263.25-171.18-15.84-35.68-24.65-75.17-24.65-116.71C7,135.91,135.91,7,294.9,7s280.99,122.11,287.62,275.23c.2,4.21.28,8.42.28,12.67Z"/>
  <g>
    <path class="cls-4" d="M299.15,587.13c-109.82,0-209.69-64.19-255.42-163.85.58-1.02,1.14-1.98,1.69-2.9,26.38-44.44,68.5-75.93,118.59-88.69,15.67-3.99,31.81-6.01,47.95-6.01h.32c1.19,0,2.38.01,3.56.04,29.08.59,57,7.56,83.01,20.7l5.45,2.75,3.47-5.03c9.93-14.38,21.72-27.32,35.06-38.46.73-.62,1.44-1.2,2.16-1.77,34.35-27.85,77.71-43.19,122.07-43.19,34.6,0,68.71,9.4,98.63,27.17,4.9,2.91,9.67,6.03,14.22,9.31.1,2.89.14,5.87.14,9.02,0,75.03-29.22,145.57-82.28,198.62-53.06,53.06-123.6,82.28-198.62,82.28Z"/>
    <path class="cls-3" d="M467.07,253.72v14h0c33.34,0,66.2,9.06,95.04,26.19,3.72,2.21,7.36,4.55,10.88,6.98.03,1.73.05,3.5.05,5.33,0,36.98-7.24,72.85-21.52,106.61-13.8,32.61-33.55,61.91-58.71,87.07s-54.45,44.91-87.07,58.71c-33.76,14.28-69.63,21.52-106.61,21.52-54.04,0-106.3-15.71-151.14-45.44-41.78-27.7-74.99-65.99-96.38-111.05,25.43-42.66,65.94-72.9,114.11-85.17,15.11-3.85,30.66-5.8,46.22-5.8h.34c1.13,0,2.27.01,3.42.04,28.01.57,54.91,7.28,79.97,19.95l10.9,5.51,6.94-10.05c9.57-13.86,20.93-26.33,33.79-37.07l.03-.03.03-.03c.66-.56,1.34-1.11,2.01-1.65,33.11-26.84,74.89-41.62,117.67-41.63v-14M467.06,253.72c-45.65,0-90.54,15.61-126.48,44.75-.75.61-1.5,1.22-2.24,1.84-13.59,11.36-25.85,24.68-36.33,39.86-27.48-13.89-56.85-20.86-86-21.45-1.23-.03-2.48-.04-3.71-.04-.11,0-.22,0-.34,0-16.79,0-33.49,2.11-49.67,6.23-49.71,12.66-94.61,44.28-122.87,91.88-1.22,2.04-2.38,4.09-3.51,6.16,44.77,100.84,145.8,171.18,263.25,171.18,158.99,0,287.9-128.91,287.9-287.9,0-4.25-.08-8.47-.28-12.67-5.56-4.16-11.4-8.06-17.5-11.68-32.11-19.08-67.38-28.16-102.2-28.16h0Z"/>
  </g>
  <g>
    <path class="cls-1" d="M143.84,276.82c-1.9-.88-3.74-1.82-5.47-2.78-40.74-22.47-57.23-73.12-37.58-115.32,10.02-21.52,27.82-37.85,50.13-45.98,9.83-3.58,20.09-5.4,30.5-5.4s21.6,2,31.8,5.93l5.7,2.2,2.95-5.35c15.61-28.31,45.44-45.89,77.84-45.89,12.99,0,25.6,2.81,37.47,8.34,21.52,10.02,37.85,27.83,45.98,50.14,7.36,20.19,7.17,42.31-.54,62.29-.71,1.87-1.52,3.77-2.41,5.67l-75.13,161.27-161.26-75.12Z"/>
    <path class="cls-3" d="M299.72,71.23c11.96,0,23.57,2.58,34.51,7.68,19.83,9.24,34.87,25.64,42.36,46.19,6.78,18.6,6.6,38.97-.49,57.38v.02s-.02.02-.02.02c-.64,1.69-1.38,3.43-2.2,5.18l-72.17,154.92-154.92-72.16c-1.75-.81-3.44-1.67-5.06-2.58-18.13-10-31.68-26.38-38.17-46.12-6.51-19.83-5.24-41.17,3.58-60.11,9.23-19.82,25.63-34.86,46.18-42.35,9.06-3.3,18.51-4.97,28.1-4.97s19.88,1.84,29.28,5.46l11.4,4.39,5.9-10.7c14.38-26.07,41.86-42.27,71.71-42.27h0M299.72,57.23c-34.03,0-66.7,18.21-83.97,49.51-11.24-4.33-22.85-6.4-34.32-6.4s-22.42,2-32.9,5.82c-23.05,8.4-42.91,25.59-54.08,49.6-21.42,45.98-3.25,100.26,40.52,124.4,1.91,1.06,3.89,2.07,5.91,3.01l161.4,75.18c2.02.94,4.06,1.81,6.11,2.59,1.06-1.92,2.06-3.89,3-5.91l75.19-161.4c.94-2.02,1.81-4.06,2.59-6.11,8.6-22.29,8.28-46.09.58-67.21-8.4-23.05-25.59-42.91-49.6-54.09-13.1-6.1-26.87-8.99-40.43-8.99h0Z"/>
  </g>
  <text class="cls-2" transform="translate(178.09 528.35)"><tspan x="0" y="0">BYRBT</tspan></text>
</svg>